<svg width="84" height="84" viewBox="0 0 84 84" fill="none" xmlns="http://www.w3.org/2000/svg">
<g clip-path="url(#clip0_23_38)">
<path d="M73.5 38.5C69.65 38.5 66.5 41.65 66.5 45.5V59.5H17.5V45.5C17.5 41.65 14.35 38.5 10.5 38.5C6.65 38.5 3.5 41.65 3.5 45.5V63C3.5 68.775 8.225 73.5 14 73.5V77C14 78.925 15.575 80.5 17.5 80.5C19.425 80.5 21 78.925 21 77V73.5H63V77C63 78.925 64.575 80.5 66.5 80.5C68.425 80.5 70 78.925 70 77V73.5C75.775 73.5 80.5 68.775 80.5 63V45.5C80.5 41.65 77.35 38.5 73.5 38.5Z" fill="#EA7727"/>
<path d="M24.5 45.5V52.5H59.5V45.5C59.5 38.99 63.98 33.565 70 31.99V28C70 22.225 65.275 17.5 59.5 17.5H24.5C18.725 17.5 14 22.225 14 28V31.99C20.02 33.565 24.5 38.99 24.5 45.5Z" fill="#EA7727"/>
</g>
<defs>
<clipPath id="clip0_23_38">
<rect width="84" height="84" fill="white"/>
</clipPath>
</defs>
</svg>
