<svg width="84" height="84" viewBox="0 0 84 84" fill="none" xmlns="http://www.w3.org/2000/svg">
<path d="M68.838 33.467C66.2241 29.3716 62.7079 25.9284 58.5585 23.401C61.915 22.701 62.6045 22.134 62.965 21.651C63.0885 21.4945 63.1789 21.3145 63.2306 21.122C63.2824 20.9294 63.2944 20.7284 63.266 20.531C62.9615 18.4555 60.081 17.612 53.319 17.612C50.344 17.612 47.4005 17.7905 45.7275 17.9165L46.375 8.48754C46.3863 8.32923 46.3657 8.17025 46.3147 8.01998C46.2636 7.86971 46.1829 7.73118 46.0775 7.61254C45.9718 7.49347 45.8434 7.3968 45.6997 7.32826C45.556 7.25973 45.4 7.22072 45.241 7.21354L40.733 7.00004C40.5767 6.99155 40.4202 7.01398 40.2726 7.06606C40.1249 7.11814 39.989 7.19883 39.8726 7.30353C39.7562 7.40822 39.6616 7.53485 39.5943 7.67616C39.5269 7.81748 39.488 7.9707 39.48 8.12704L38.913 18.0635C36.4957 17.9263 34.0751 17.8551 31.654 17.85C23.513 17.85 21.875 18.9 21.315 20.0445C21.2127 20.2488 21.1595 20.4741 21.1595 20.7025C21.1595 20.931 21.2127 21.1563 21.315 21.3605C21.5915 21.9205 22.1655 22.547 25.3085 23.492C20.6775 26.3402 16.8537 30.3276 14.2018 35.0737C11.55 39.8198 10.1586 45.1663 10.1605 50.603C10.0259 54.4357 10.8141 58.2445 12.4586 61.709C14.1032 65.1735 16.5559 68.1922 19.6105 70.511C26.1717 75.0464 34.0304 77.3241 42 77C49.9751 77.3212 57.838 75.0373 64.4 70.4935C67.4545 68.1747 69.9073 65.156 71.5518 61.6915C73.1964 58.227 73.9845 54.4182 73.85 50.5855C73.8497 44.5176 72.1104 38.5769 68.838 33.467ZM42.539 24.619C42.3356 24.4711 42.0905 24.3914 41.839 24.3914C41.5875 24.3914 41.3424 24.4711 41.139 24.619C37.3515 27.3712 33.4176 29.9159 29.3545 32.242C30.7413 29.6582 32.2976 27.1689 34.013 24.7905C34.1295 24.6269 34.2026 24.4364 34.2257 24.2368C34.2487 24.0373 34.2208 23.8352 34.1446 23.6493C34.0685 23.4634 33.9465 23.2998 33.79 23.1738C33.6336 23.0478 33.4478 22.9634 33.25 22.9285C30.3126 22.3796 27.4133 21.6431 24.57 20.7235C26.9037 20.3179 29.2725 20.1502 31.64 20.223C35.8085 20.223 39.893 20.5205 39.935 20.524C40.0928 20.5363 40.2515 20.5169 40.4018 20.467C40.552 20.4171 40.6908 20.3377 40.81 20.2335C41.0484 20.0206 41.1941 19.7229 41.216 19.404L41.797 9.45004L43.897 9.55154L43.2495 19.145C43.2362 19.3174 43.2606 19.4907 43.321 19.6526C43.3815 19.8146 43.4765 19.9615 43.5995 20.083C43.7234 20.2038 43.8721 20.2962 44.0353 20.3536C44.1985 20.411 44.3723 20.4322 44.5445 20.4155C44.5865 20.4155 48.986 20.0095 53.312 20.0095C55.5559 19.9202 57.8021 20.1155 59.997 20.5905C57.2077 21.2878 54.3761 21.8033 51.52 22.134C51.315 22.1581 51.1198 22.235 50.9535 22.3573C50.7873 22.4796 50.6557 22.643 50.5717 22.8315C50.4876 23.02 50.4541 23.2271 50.4743 23.4325C50.4945 23.6379 50.5678 23.8345 50.687 24.003C52.6124 26.5767 54.174 29.4032 55.328 32.403C50.8027 30.266 46.516 27.6569 42.539 24.619Z" fill="#EA7727"/>
</svg>
