<svg width="84" height="84" viewBox="0 0 84 84" fill="none" xmlns="http://www.w3.org/2000/svg">
<g clip-path="url(#clip0_23_43)">
<path d="M73.5 42V66.5C73.5 68.3565 72.7625 70.137 71.4497 71.4497C70.137 72.7625 68.3565 73.5 66.5 73.5H17.5C15.6435 73.5 13.863 72.7625 12.5503 71.4497C11.2375 70.137 10.5 68.3565 10.5 66.5V42H73.5ZM56 10.5C56.9283 10.5 57.8185 10.8687 58.4749 11.5251C59.1313 12.1815 59.5 13.0717 59.5 14V17.5H66.5C68.3565 17.5 70.137 18.2375 71.4497 19.5503C72.7625 20.863 73.5 22.6435 73.5 24.5V35H10.5V24.5C10.5 22.6435 11.2375 20.863 12.5503 19.5503C13.863 18.2375 15.6435 17.5 17.5 17.5H24.5V14C24.5 13.0717 24.8687 12.1815 25.5251 11.5251C26.1815 10.8687 27.0717 10.5 28 10.5C28.9283 10.5 29.8185 10.8687 30.4749 11.5251C31.1313 12.1815 31.5 13.0717 31.5 14V17.5H52.5V14C52.5 13.0717 52.8688 12.1815 53.5251 11.5251C54.1815 10.8687 55.0717 10.5 56 10.5Z" fill="#EA7727"/>
</g>
<defs>
<clipPath id="clip0_23_43">
<rect width="84" height="84" fill="white"/>
</clipPath>
</defs>
</svg>
