<svg width="25" height="25" viewBox="0 0 25 25" fill="none" xmlns="http://www.w3.org/2000/svg">
<path d="M12.99 3.00005C7.53 3.00005 3.08 7.45005 3.08 12.9101C3.08 14.6601 3.54 16.3601 4.4 17.8601L3 23.0001L8.25 21.6201C9.7 22.4101 11.33 22.8301 12.99 22.8301C18.45 22.8301 22.9 18.3801 22.9 12.9201C22.9 10.2701 21.87 7.78005 20 5.91005C19.0831 4.98416 17.991 4.25002 16.7875 3.75042C15.584 3.25081 14.2931 2.99574 12.99 3.00005ZM13 4.67005C15.2 4.67005 17.26 5.53005 18.82 7.09005C19.5854 7.85557 20.1922 8.76457 20.6058 9.76497C21.0193 10.7654 21.2315 11.8375 21.23 12.9201C21.23 17.4601 17.53 21.1501 12.99 21.1501C11.51 21.1501 10.06 20.7601 8.8 20.0001L8.5 19.8301L5.38 20.6501L6.21 17.6101L6.01 17.2901C5.18455 15.9785 4.74767 14.4598 4.75 12.9101C4.76 8.37005 8.45 4.67005 13 4.67005ZM9.48 8.33005C9.32 8.33005 9.05 8.39005 8.82 8.64005C8.6 8.89005 7.95 9.50005 7.95 10.7101C7.95 11.9301 8.84 13.1001 8.95 13.2701C9.09 13.4401 10.71 15.9401 13.2 17.0001C13.79 17.2701 14.25 17.4201 14.61 17.5301C15.2 17.7201 15.74 17.6901 16.17 17.6301C16.65 17.5601 17.63 17.0301 17.84 16.4501C18.05 15.8701 18.05 15.3801 17.99 15.2701C17.92 15.1701 17.76 15.1101 17.51 15.0001C17.26 14.8601 16.04 14.2601 15.82 14.1801C15.59 14.1001 15.45 14.0601 15.26 14.3001C15.1 14.5501 14.62 15.1101 14.48 15.2701C14.33 15.4401 14.19 15.4601 13.95 15.3401C13.69 15.2101 12.89 14.9501 11.95 14.1101C11.21 13.4501 10.72 12.6401 10.57 12.3901C10.45 12.1501 10.56 12.0001 10.68 11.8901C10.79 11.7801 10.95 11.6001 11.05 11.4501C11.18 11.3101 11.22 11.2001 11.3 11.0401C11.38 10.8701 11.34 10.7301 11.28 10.6101C11.22 10.5001 10.72 9.26005 10.51 8.77005C10.31 8.29005 10.11 8.35005 9.95 8.34005C9.81 8.34005 9.65 8.33005 9.48 8.33005Z" fill="white"/>
</svg>
