<svg width="25" height="25" viewBox="0 0 25 25" fill="none" xmlns="http://www.w3.org/2000/svg">
<path d="M10.978 21.625C11.9834 21.7921 13.0094 21.7928 14.015 21.6271M10.978 21.625C8.81845 21.2646 6.85578 20.1497 5.44091 18.4789C4.02604 16.808 3.24971 14.6895 3.25 12.5C3.25036 10.7354 3.75548 9.0077 4.70575 7.52077C5.65602 6.03385 7.01179 4.84977 8.61307 4.10826C10.2143 3.36674 11.9943 3.09873 13.743 3.33585C15.4916 3.57297 17.1359 4.30533 18.4819 5.44651C19.8279 6.58768 20.8193 8.09006 21.3393 9.77635C21.8593 11.4626 21.8861 13.2625 21.4165 14.9635C20.9469 16.6645 20.0005 18.1957 18.6891 19.3764C17.3776 20.5571 15.7558 21.338 14.015 21.6271M10.978 21.625L10.977 16.62H9.08C8.92087 16.62 8.76826 16.5568 8.65574 16.4443C8.54321 16.3318 8.48 16.1792 8.48 16.02V14.182C8.48 14.0229 8.54321 13.8703 8.65574 13.7578C8.76826 13.6453 8.92087 13.582 9.08 13.582H10.977V10.45C10.977 9.6544 11.2931 8.89134 11.8557 8.32873C12.4183 7.76612 13.1814 7.45005 13.977 7.45005H15.787C16.0522 7.45005 16.3066 7.55541 16.4941 7.74294C16.6816 7.93048 16.787 8.18483 16.787 8.45005V9.49005C16.787 9.75527 16.6816 10.0096 16.4941 10.1972C16.3066 10.3847 16.0522 10.49 15.787 10.49H15.015C14.7498 10.49 14.4954 10.5954 14.3079 10.7829C14.1204 10.9705 14.015 11.2248 14.015 11.49V13.582H16.312C16.3991 13.582 16.4851 13.601 16.5642 13.6376C16.6432 13.6742 16.7133 13.7275 16.7696 13.794C16.826 13.8604 16.8672 13.9383 16.8904 14.0222C16.9136 14.1061 16.9182 14.1941 16.904 14.28L16.654 15.784C16.6152 16.0176 16.4948 16.2297 16.3142 16.3828C16.1337 16.5359 15.9047 16.6199 15.668 16.62H14.015V21.6271" stroke="white" stroke-width="1.5" stroke-linecap="round"/>
</svg>
