<svg width="25" height="25" viewBox="0 0 25 25" fill="none" xmlns="http://www.w3.org/2000/svg">
<path d="M12.501 9.5C11.7054 9.5 10.9423 9.81607 10.3797 10.3787C9.81707 10.9413 9.501 11.7044 9.501 12.5C9.501 13.2956 9.81707 14.0587 10.3797 14.6213C10.9423 15.1839 11.7054 15.5 12.501 15.5C13.2966 15.5 14.0597 15.1839 14.6223 14.6213C15.1849 14.0587 15.501 13.2956 15.501 12.5C15.501 11.7044 15.1849 10.9413 14.6223 10.3787C14.0597 9.81607 13.2966 9.5 12.501 9.5ZM12.501 7.5C13.8271 7.5 15.0989 8.02678 16.0365 8.96447C16.9742 9.90215 17.501 11.1739 17.501 12.5C17.501 13.8261 16.9742 15.0979 16.0365 16.0355C15.0989 16.9732 13.8271 17.5 12.501 17.5C11.1749 17.5 9.90315 16.9732 8.96547 16.0355C8.02778 15.0979 7.501 13.8261 7.501 12.5C7.501 11.1739 8.02778 9.90215 8.96547 8.96447C9.90315 8.02678 11.1749 7.5 12.501 7.5ZM19.001 7.25C19.001 7.58152 18.8693 7.89946 18.6349 8.13388C18.4005 8.3683 18.0825 8.5 17.751 8.5C17.4195 8.5 17.1015 8.3683 16.8671 8.13388C16.6327 7.89946 16.501 7.58152 16.501 7.25C16.501 6.91848 16.6327 6.60054 16.8671 6.36612C17.1015 6.1317 17.4195 6 17.751 6C18.0825 6 18.4005 6.1317 18.6349 6.36612C18.8693 6.60054 19.001 6.91848 19.001 7.25ZM12.501 4.5C10.027 4.5 9.623 4.507 8.472 4.558C7.688 4.595 7.162 4.7 6.674 4.89C6.26583 5.04037 5.89672 5.28063 5.594 5.593C5.28127 5.89562 5.04066 6.26474 4.89 6.673C4.7 7.163 4.595 7.688 4.559 8.471C4.507 9.575 4.5 9.961 4.5 12.5C4.5 14.975 4.507 15.378 4.558 16.529C4.595 17.312 4.7 17.839 4.889 18.326C5.059 18.761 5.259 19.074 5.591 19.406C5.928 19.742 6.241 19.943 6.671 20.109C7.165 20.3 7.691 20.406 8.471 20.442C9.575 20.494 9.961 20.5 12.5 20.5C14.975 20.5 15.378 20.493 16.529 20.442C17.311 20.405 17.837 20.3 18.326 20.111C18.7342 19.9606 19.1033 19.7204 19.406 19.408C19.743 19.072 19.944 18.759 20.11 18.328C20.3 17.836 20.406 17.31 20.442 16.528C20.494 15.425 20.5 15.038 20.5 12.5C20.5 10.026 20.493 9.622 20.442 8.471C20.405 7.689 20.299 7.161 20.11 6.673C19.9596 6.26483 19.7194 5.89572 19.407 5.593C19.1044 5.28027 18.7353 5.03966 18.327 4.889C17.837 4.699 17.311 4.594 16.529 4.558C15.426 4.506 15.04 4.5 12.5 4.5M12.5 2.5C15.217 2.5 15.556 2.51 16.623 2.56C17.687 2.61 18.413 2.777 19.05 3.025C19.71 3.279 20.266 3.623 20.822 4.178C21.3307 4.67773 21.7242 5.28247 21.975 5.95C22.222 6.587 22.39 7.313 22.44 8.378C22.487 9.444 22.5 9.783 22.5 12.5C22.5 15.217 22.49 15.556 22.44 16.622C22.39 17.688 22.222 18.412 21.975 19.05C21.7242 19.7175 21.3307 20.3223 20.822 20.822C20.3223 21.3307 19.7175 21.7242 19.05 21.975C18.413 22.222 17.687 22.39 16.623 22.44C15.556 22.487 15.217 22.5 12.5 22.5C9.783 22.5 9.444 22.49 8.377 22.44C7.313 22.39 6.588 22.222 5.95 21.975C5.28247 21.7242 4.67773 21.3307 4.178 20.822C3.66931 20.3223 3.27582 19.7175 3.025 19.05C2.777 18.413 2.61 17.687 2.56 16.622C2.512 15.556 2.5 15.217 2.5 12.5C2.5 9.783 2.51 9.444 2.56 8.378C2.61 7.312 2.777 6.588 3.025 5.95C3.27582 5.28247 3.66931 4.67773 4.178 4.178C4.67773 3.66931 5.28247 3.27582 5.95 3.025C6.587 2.777 7.312 2.61 8.377 2.56C9.445 2.513 9.784 2.5 12.501 2.5" fill="white"/>
</svg>
