<svg width="84" height="84" viewBox="0 0 84 84" fill="none" xmlns="http://www.w3.org/2000/svg">
<path d="M66.5 66.507V73.5C66.4998 74.3573 66.1851 75.1847 65.6154 75.8253C65.0458 76.4659 64.2608 76.8752 63.4095 76.9755L63 77H21C20.0717 77 19.1815 76.6313 18.5251 75.9749C17.8687 75.3185 17.5 74.4283 17.5 73.5V66.521C17.5 65.5927 17.8687 64.7025 18.5251 64.0461C19.1815 63.3897 20.0717 63.021 21 63.021L63 63.007C63.9282 63.007 64.8185 63.3757 65.4748 64.0321C66.1312 64.6885 66.5 65.5787 66.5 66.507ZM42 7C45.3325 6.99937 48.5958 7.95027 51.4064 9.74089C54.217 11.5315 56.4578 14.0874 57.8655 17.108L58.0755 17.5875L58.5515 17.556C62.3956 17.3821 66.1898 18.4801 69.347 20.68C72.5042 22.8799 74.8483 26.0591 76.0165 29.7255L76.237 30.471C77.312 34.4393 76.9556 38.6594 75.2301 42.3911C73.5047 46.1229 70.5206 49.128 66.801 50.8795L66.4965 51.009V56.007C66.4965 56.9353 66.1277 57.8255 65.4713 58.4819C64.8149 59.1382 63.9247 59.507 62.9965 59.507L20.9965 59.521C20.1392 59.5209 19.3118 59.2062 18.6712 58.6365C18.0305 58.0668 17.6213 57.2819 17.521 56.4305L17.4965 56.021V51.0055L17.066 50.813C14.9122 49.7765 12.9937 48.3098 11.4286 46.5033C9.86353 44.6968 8.68509 42.5889 7.96595 40.3095L7.74195 39.529C7.02666 36.8348 6.96533 34.0087 7.56306 31.286C8.1608 28.5633 9.4003 26.0227 11.1784 23.8759C12.9564 21.7291 15.2216 20.038 17.7854 18.9436C20.3491 17.8492 23.1372 17.3831 25.9175 17.584L26.1485 17.087C27.5008 14.1947 29.6187 11.7275 32.2728 9.95258C34.9268 8.17766 38.0159 7.16266 41.2055 7.0175L42 7Z" fill="#EA7727"/>
</svg>
