<svg width="18" height="17" viewBox="0 0 18 17" fill="none" xmlns="http://www.w3.org/2000/svg">
<path d="M8.55096 0.823364C8.63786 0.823364 8.73301 0.845758 8.841 0.907349C8.91286 0.948375 8.97076 1.0097 9.01483 1.11536L9.01581 1.11731L10.8908 5.5675L11.008 5.84485L11.3078 5.87122L16.1359 6.29407C16.3007 6.31835 16.3824 6.36489 16.4221 6.39954C16.4857 6.45521 16.5404 6.53236 16.5812 6.64465C16.6154 6.7387 16.6223 6.83037 16.6008 6.93079C16.5848 7.00488 16.5433 7.08579 16.4435 7.17493L12.7746 10.3448L12.5461 10.5421L12.6144 10.837L13.7141 15.5616C13.7423 15.6846 13.7273 15.7626 13.6994 15.8214C13.6489 15.9276 13.5817 16.0114 13.4953 16.0782C13.4259 16.1318 13.3435 16.1653 13.2336 16.1749C13.153 16.1819 13.0695 16.1657 12.9709 16.1027L12.7014 16.5236L12.9709 16.1017L12.9592 16.0948L8.80975 13.5948L8.55096 13.4396L8.29315 13.5948L4.14374 16.0948H4.14276L4.133 16.1017C4.03375 16.1648 3.94928 16.1818 3.86737 16.1749C3.75856 16.1658 3.67753 16.1319 3.60858 16.0782C3.52122 16.0103 3.45299 15.9271 3.40253 15.8214C3.37507 15.7639 3.35915 15.6845 3.38788 15.5597L4.48846 10.837L4.55682 10.5421L4.32831 10.3448L0.653503 7.17004C0.558764 7.08267 0.518859 7.00295 0.503113 6.92981C0.481378 6.8286 0.48803 6.73694 0.521667 6.64368C0.561588 6.53319 0.616153 6.45618 0.680847 6.39954C0.72122 6.36422 0.802484 6.31769 0.965027 6.29407L5.7951 5.87122L6.09491 5.84485L6.2121 5.5675L8.0871 1.11731L8.08807 1.11536C8.13218 1.00968 8.18999 0.94836 8.2619 0.907349C8.36973 0.845864 8.46417 0.823422 8.55096 0.823364Z" stroke="black"/>
</svg>
