<svg width="18" height="17" viewBox="0 0 18 17" fill="none" xmlns="http://www.w3.org/2000/svg">
<path d="M9.1835 14.0234L5.0335 16.5234C4.85016 16.64 4.6585 16.69 4.4585 16.6734C4.2585 16.6567 4.0835 16.59 3.9335 16.4734C3.7835 16.3567 3.66683 16.211 3.5835 16.0364C3.50016 15.8617 3.4835 15.6657 3.5335 15.4484L4.6335 10.7234L0.958495 7.54836C0.791829 7.39836 0.687829 7.22736 0.646495 7.03536C0.605162 6.84336 0.617495 6.65603 0.683495 6.47336C0.749495 6.2907 0.849495 6.1407 0.983495 6.02336C1.1175 5.90603 1.30083 5.83103 1.5335 5.79836L6.3835 5.37336L8.2585 0.923364C8.34183 0.723364 8.47116 0.573364 8.6465 0.473364C8.82183 0.373364 9.00083 0.323364 9.1835 0.323364C9.36616 0.323364 9.54516 0.373364 9.7205 0.473364C9.89583 0.573364 10.0252 0.723364 10.1085 0.923364L11.9835 5.37336L16.8335 5.79836C17.0668 5.8317 17.2502 5.9067 17.3835 6.02336C17.5168 6.14003 17.6168 6.29003 17.6835 6.47336C17.7502 6.6567 17.7628 6.84436 17.7215 7.03636C17.6802 7.22836 17.5758 7.39903 17.4085 7.54836L13.7335 10.7234L14.8335 15.4484C14.8835 15.665 14.8668 15.861 14.7835 16.0364C14.7002 16.2117 14.5835 16.3574 14.4335 16.4734C14.2835 16.5894 14.1085 16.656 13.9085 16.6734C13.7085 16.6907 13.5168 16.6407 13.3335 16.5234L9.1835 14.0234Z" fill="#EA7727"/>
</svg>
